# xmcd
#
# Track frame offsets: 
#        150
#        22555
#        38958
#        57578
#        76893
#        95561
#        120725
#        135925
#        149000
#        164891
#        191374
#        211079
#
# Disc length: 3054 seconds
#
# Revision: 12
# Processed by: cddbd v1.5.2PL0 Copyright (c) Steve Scherf et al.
# Submitted via: ExactAudioCopy v0.99pb5
#
DISCID=a20bec0c
DTITLE=Bruce Springsteen - Devils and Dust
DYEAR=2005
DGENRE=Rock
TTITLE0=Devils and Dust
TTITLE1=All The Way Home
TTITLE2=Reno
TTITLE3=Long Time Comin'
TTITLE4=Black Cowboys
TTITLE5=Maria's Bed
TTITLE6=Silver Palomino
TTITLE7=Jesus Was An Only Son
TTITLE8=Leah
TTITLE9=The Hitter
TTITLE10=All I'm Thinkin' About
TTITLE11=Matamoros Banks
EXTD=By Jules YEAR: 2005
EXTT0=
EXTT1=
EXTT2=
EXTT3=
EXTT4=
EXTT5=
EXTT6=
EXTT7=
EXTT8=
EXTT9=
EXTT10=
EXTT11=
PLAYORDER=
